HIERARCHY
ROOT hips_JNT
{
    OFFSET 0 0 0
    CHANNELS 6 Xposition Yposition Zposition Zrotation Xrotation Yrotation
    JOINT spine_JNT
    {
        OFFSET -1.56926e-06 8.92007 0.265482
        CHANNELS 3 Zrotation Xrotation Yrotation
        JOINT spine1_JNT
        {
            OFFSET -9.45311e-07 13.9808 -0.963336
            CHANNELS 3 Zrotation Xrotation Yrotation
            JOINT spine2_JNT
            {
                OFFSET 0.00376512 9.65337 -1.46169
                CHANNELS 3 Zrotation Xrotation Yrotation
                JOINT l_shoulder_JNT
                {
                    OFFSET 2.75575 8.85723 0.537554
                    CHANNELS 3 Zrotation Xrotation Yrotation
                    JOINT l_arm_JNT
                    {
                        OFFSET 9.94938 -0.882506 -5.67532
                        CHANNELS 3 Zrotation Xrotation Yrotation
                        JOINT l_forearm_JNT
                        {
                            OFFSET 22.0813 -0.00821352 0.00300035
                            CHANNELS 3 Zrotation Xrotation Yrotation
                            JOINT l_hand_JNT
                            {
                                OFFSET 19.6324 -0.00730753 0.00227764
                                CHANNELS 3 Zrotation Xrotation Yrotation
                                JOINT l_handThumb1_JNT
                                {
                                    OFFSET 3.50398 -1.16091 1.5753
                                    CHANNELS 3 Zrotation Xrotation Yrotation
                                    JOINT l_handThumb2_JNT
                                    {
                                        OFFSET 2.00002 -0.742412 1.40448
                                        CHANNELS 3 Zrotation Xrotation Yrotation
                                        JOINT l_handThumb3_JNT
                                        {
                                            OFFSET 2.31028 -1.14459 0.861435
                                            CHANNELS 3 Zrotation Xrotation Yrotation
                                            End Site
                                            {
                                                OFFSET 0 0 0
                                            }
                                        }
                                    }
                                }
                                JOINT l_handIndex1_JNT
                                {
                                    OFFSET 8.73498 -0.113869 1.74649
                                    CHANNELS 3 Zrotation Xrotation Yrotation
                                    JOINT l_handIndex2_JNT
                                    {
                                        OFFSET 3.00419 -0.0119567 0.219374
                                        CHANNELS 3 Zrotation Xrotation Yrotation
                                        JOINT l_handIndex3_JNT
                                        {
                                            OFFSET 2.2936 -0.0178933 0.139157
                                            CHANNELS 3 Zrotation Xrotation Yrotation
                                            End Site
                                            {
                                                OFFSET 0 0 0
                                            }
                                        }
                                    }
                                }
                                JOINT l_handMiddle1_JNT
                                {
                                    OFFSET 8.94402 0.215197 0.219049
                                    CHANNELS 3 Zrotation Xrotation Yrotation
                                    JOINT l_handMiddle2_JNT
                                    {
                                        OFFSET 3.27637 -0.0240684 0.019037
                                        CHANNELS 3 Zrotation Xrotation Yrotation
                                        JOINT l_handMiddle3_JNT
                                        {
                                            OFFSET 2.48718 0.0301957 0.0435539
                                            CHANNELS 3 Zrotation Xrotation Yrotation
                                            End Site
                                            {
                                                OFFSET 0 0 0
                                            }
                                        }
                                    }
                                }
                                JOINT l_handRing1_JNT
                                {
                                    OFFSET 8.49259 0.147486 -1.1471
                                    CHANNELS 3 Zrotation Xrotation Yrotation
                                    JOINT l_handRing2_JNT
                                    {
                                        OFFSET 3.11304 -0.0371099 -0.0604287
                                        CHANNELS 3 Zrotation Xrotation Yrotation
                                        JOINT l_handRing3_JNT
                                        {
                                            OFFSET 2.35177 0.0593185 -0.0519425
                                            CHANNELS 3 Zrotation Xrotation Yrotation
                                            End Site
                                            {
                                                OFFSET 0 0 0
                                            }
                                        }
                                    }
                                }
                                JOINT l_handPinky1_JNT
                                {
                                    OFFSET 7.6071 -0.140619 -2.28307
                                    CHANNELS 3 Zrotation Xrotation Yrotation
                                    JOINT l_handPinky2_JNT
                                    {
                                        OFFSET 2.48513 0.021708 -0.251305
                                        CHANNELS 3 Zrotation Xrotation Yrotation
                                        JOINT l_handPinky3_JNT
                                        {
                                            OFFSET 2.03097 0.0165105 -0.176625
                                            CHANNELS 3 Zrotation Xrotation Yrotation
                                            End Site
                                            {
                                                OFFSET 0 0 0
                                            }
                                        }
                                    }
                                }
                            }
                        }
                    }
                }
                JOINT r_shoulder_JNT
                {
                    OFFSET -2.74929 8.85936 0.536917
                    CHANNELS 3 Zrotation Xrotation Yrotation
                    JOINT r_arm_JNT
                    {
                        OFFSET -9.94868 -0.875092 -5.67759
                        CHANNELS 3 Zrotation Xrotation Yrotation
                        JOINT r_forearm_JNT
                        {
                            OFFSET -22.0814 0.00821352 0.00300035
                            CHANNELS 3 Zrotation Xrotation Yrotation
                            JOINT r_hand_JNT
                            {
                                OFFSET -19.6325 0.00729561 -0.00225902
                                CHANNELS 3 Zrotation Xrotation Yrotation
                                JOINT r_handThumb1_JNT
                                {
                                    OFFSET -3.50509 -1.15818 1.57505
                                    CHANNELS 3 Zrotation Xrotation Yrotation
                                    JOINT r_handThumb2_JNT
                                    {
                                        OFFSET -2.00061 -0.74079 1.40435
                                        CHANNELS 3 Zrotation Xrotation Yrotation
                                        JOINT r_handThumb3_JNT
                                        {
                                            OFFSET -2.31124 -1.14274 0.861293
                                            CHANNELS 3 Zrotation Xrotation Yrotation
                                            End Site
                                            {
                                                OFFSET 0 0 0
                                            }
                                        }
                                    }
                                }
                                JOINT r_handIndex1_JNT
                                {
                                    OFFSET -8.75251 -0.143778 1.74657
                                    CHANNELS 3 Zrotation Xrotation Yrotation
                                    JOINT r_handIndex2_JNT
                                    {
                                        OFFSET -3.00432 -0.0118852 0.21936
                                        CHANNELS 3 Zrotation Xrotation Yrotation
                                        JOINT r_handIndex3_JNT
                                        {
                                            OFFSET -2.29363 -0.0178218 0.139182
                                            CHANNELS 3 Zrotation Xrotation Yrotation
                                            End Site
                                            {
                                                OFFSET 0 0 0
                                            }
                                        }
                                    }
                                }
                                JOINT r_handMiddle1_JNT
                                {
                                    OFFSET -8.94377 0.222039 0.218229
                                    CHANNELS 3 Zrotation Xrotation Yrotation
                                    JOINT r_handMiddle2_JNT
                                    {
                                        OFFSET -3.2765 -0.0216365 0.0187881
                                        CHANNELS 3 Zrotation Xrotation Yrotation
                                        JOINT r_handMiddle3_JNT
                                        {
                                            OFFSET -2.48721 0.032115 0.0433944
                                            CHANNELS 3 Zrotation Xrotation Yrotation
                                            End Site
                                            {
                                                OFFSET 0 0 0
                                            }
                                        }
                                    }
                                }
                                JOINT r_handRing1_JNT
                                {
                                    OFFSET -8.51044 0.117564 -1.14701
                                    CHANNELS 3 Zrotation Xrotation Yrotation
                                    JOINT r_handRing2_JNT
                                    {
                                        OFFSET -3.11282 -0.0370622 -0.0604451
                                        CHANNELS 3 Zrotation Xrotation Yrotation
                                        JOINT r_handRing3_JNT
                                        {
                                            OFFSET -2.35179 0.0593066 -0.0519402
                                            CHANNELS 3 Zrotation Xrotation Yrotation
                                            End Site
                                            {
                                                OFFSET 0 0 0
                                            }
                                        }
                                    }
                                }
                                JOINT r_handPinky1_JNT
                                {
                                    OFFSET -7.62483 -0.170684 -2.28293
                                    CHANNELS 3 Zrotation Xrotation Yrotation
                                    JOINT r_handPinky2_JNT
                                    {
                                        OFFSET -2.48517 0.0216603 -0.251315
                                        CHANNELS 3 Zrotation Xrotation Yrotation
                                        JOINT r_handPinky3_JNT
                                        {
                                            OFFSET -2.00306 -0.327218 -0.190923
                                            CHANNELS 3 Zrotation Xrotation Yrotation
                                            End Site
                                            {
                                                OFFSET 0 0 0
                                            }
                                        }
                                    }
                                }
                            }
                        }
                    }
                }
                JOINT neck_JNT
                {
                    OFFSET 0.00435802 11.1696 -1.72922
                    CHANNELS 3 Zrotation Xrotation Yrotation
                    JOINT head_JNT
                    {
                        OFFSET 0.00254531 6.8544 2.28851
                        CHANNELS 3 Zrotation Xrotation Yrotation
                        End Site
                        {
                            OFFSET 0 0 0
                        }
                    }
                }
            }
        }
    }
    JOINT r_upleg_JNT
    {
        OFFSET -6.5544 0 0
        CHANNELS 3 Zrotation Xrotation Yrotation
        JOINT r_leg_JNT
        {
            OFFSET -3.79333 -30.7369 -0.926
            CHANNELS 3 Zrotation Xrotation Yrotation
            JOINT r_foot_JNT
            {
                OFFSET -2.08035 -28.8218 -4.5647
                CHANNELS 3 Zrotation Xrotation Yrotation
                JOINT r_toebase_JNT
                {
                    OFFSET -0.605839 -9.84125 11.9569
                    CHANNELS 3 Zrotation Xrotation Yrotation
                    End Site
                    {
                        OFFSET 0 0 0
                    }
                }
            }
        }
    }
    JOINT l_upleg_JNT
    {
        OFFSET 6.55439 -0.000137091 -3.91155e-06
        CHANNELS 3 Zrotation Xrotation Yrotation
        JOINT l_leg_JNT
        {
            OFFSET 3.7933 -30.7368 -0.926
            CHANNELS 3 Zrotation Xrotation Yrotation
            JOINT l_foot_JNT
            {
                OFFSET 2.08034 -28.8217 -4.56469
                CHANNELS 3 Zrotation Xrotation Yrotation
                JOINT l_toebase_JNT
                {
                    OFFSET 0.60584 -9.84127 11.957
                    CHANNELS 3 Zrotation Xrotation Yrotation
                    End Site
                    {
                        OFFSET 0 0 0
                    }
                }
            }
        }
    }
}
MOTION
Frames: 6
Frame Time: 0.033333
52.7552 55.9004 4.0891 -1.35701 11.5379 -32.7912 5.20002 0.00945187 0 1.74651 1.7938 -11.0515 -0 0 0 4.26887e-07 -1.86763e-06 0 -37.3179 3.76874 21.8546 -12.875 3.21877 -27.9662 -6.83019e-06 1.70755e-06 0 4.10661 20.7048 -22.2077 -0 0 0 -14.9265 -0.193364 1.47615 -23.5857 6.84481 1.43037 -30.4164 8.63632 2.35206 -20.1907 5.91156 1.05349 -27.5416 5.2836 1.29601 -35.4735 6.62043 2.1196 -23.5893 4.57595 0.956126 -31.3786 -2.98064 -0.837428 -40.3662 -3.70571 -1.36198 -26.8895 -2.58956 -0.621808 -34.4799 -6.45971 -2.00654 -44.446 -7.97227 -3.26174 -29.521 -5.62824 -1.48355 4.26887e-07 -1.86763e-06 0 -20.6601 -10.1465 49.9097 -4.13363 -0.153154 4.24124 -0 0 0 -4.10661 20.7048 22.2077 -0 0 0 6.6635 0.0387059 0.664405 10.4874 3.12557 -0.285305 13.4925 4.00391 -0.474777 8.98682 2.68304 -0.209357 12.2655 2.43294 -0.259443 15.7761 3.11243 -0.4316 10.5116 2.08962 -0.189746 13.9964 -1.38549 0.176939 17.9976 -1.76975 0.279765 11.9963 -1.19071 0.131221 15.337 -3.02808 0.40926 19.7309 -3.86278 0.671436 13.1428 -2.60377 0.301316 3.06796 4.94298 -2.39657 5.67323 -4.92437 -0.197823 -58.7151 -47.1584 -70.0146 -4.30303 68.504 2.93081 5.54953e-06 -5.54953e-06 0.0559529 4.26887e-07 9.93923e-17 0 32.4778 -11.6226 18.0299 -8.12844 59.0907 6.75311 1.37094 -0.200998 -1.51798 -6.41539 -43.4113 -15.7183 
52.2452 55.7002 3.67956 -1.14371 11.5785 -32.8515 5.33704 0.00941691 0 1.73218 1.80267 -10.7772 -4.26887e-07 -1.06722e-07 0 -8.53774e-07 2.13443e-07 0 -36.402 3.98474 20.6799 -13.4684 3.14676 -26.1907 -1.02453e-05 -1.36604e-05 0 4.10661 20.7048 -22.2077 -0 0 0 -14.8291 -0.190862 1.46604 -23.4303 6.80266 1.4122 -30.2149 8.58531 2.32124 -20.058 5.87457 1.04079 -27.3608 5.25178 1.2796 -35.24 6.58284 2.09247 -23.4347 4.54777 0.943768 -31.1734 -2.96315 -0.828029 -40.1021 -3.68562 -1.34579 -26.7137 -2.5739 -0.611656 -34.2529 -6.42272 -1.98103 -44.1523 -7.93103 -3.22092 -29.3271 -5.59478 -1.46444 -8.53774e-07 2.13443e-07 0 -21.0179 -10.1326 49.1318 -4.04867 -0.15377 4.34806 1.28066e-06 -3.62854e-06 0 -4.10661 20.7048 22.2077 -0 0 0 6.65674 0.0386275 0.664405 10.4767 3.12244 -0.282548 13.4788 3.99992 -0.473125 8.9777 2.68035 -0.213062 12.2531 2.43052 -0.262442 15.7601 3.10936 -0.429783 10.501 2.08753 -0.189746 13.9822 -1.38412 0.172458 17.9794 -1.76802 0.279765 11.9841 -1.18952 0.125115 15.3215 -3.02509 0.40926 19.7108 -3.85902 0.672601 13.1294 -2.60118 0.298707 3.28108 4.50424 -2.55833 4.25631 -4.80658 -0.153233 -59.7521 -47.903 -70.6485 -3.83117 66.7919 2.52631 -5.33609e-06 -4.26887e-07 0 6.4033e-07 -1.70755e-06 0 33.1927 -11.6287 18.5722 -8.14559 58.9504 6.59267 1.2634 -0.218254 -1.4391 -6.29727 -42.7128 -15.6984 
51.6247 55.4368 3.1608 -0.871356 11.5197 -32.8356 5.36249 0.00875712 0.0395647 1.70812 1.81336 -10.3993 9.93923e-17 -8.53774e-07 0 9.93923e-17 -8.53774e-07 0 -35.3605 4.20242 19.3336 -14.0187 3.03375 -24.309 -1.70755e-06 3.41509e-06 0 4.10661 20.7048 -22.2077 -0 0 0 -14.7186 -0.188046 1.4564 -23.2542 6.75483 1.39154 -29.9866 8.52736 2.28762 -19.9076 5.8326 1.02487 -27.1559 5.21566 1.25988 -34.9753 6.5401 2.06233 -23.2595 4.5158 0.931244 -30.9408 -2.94328 -0.813727 -39.8026 -3.66276 -1.32646 -26.5145 -2.55613 -0.603929 -33.9958 -6.38067 -1.95237 -43.8194 -7.88404 -3.17515 -29.1073 -5.55678 -1.44344 9.93923e-17 -8.53774e-07 0 -21.433 -10.0471 48.0042 -3.84148 -0.154622 4.60769 -0 0 0 -4.10661 20.7048 22.2077 -0 0 0 6.6446 0.0384869 0.663226 10.4576 3.11681 -0.285305 13.4541 3.99276 -0.471468 8.96129 2.67549 -0.213062 12.2307 2.42615 -0.262442 15.7312 3.10383 -0.427958 10.4818 2.08376 -0.193827 13.9567 -1.38164 0.163129 17.9466 -1.7649 0.279765 11.9623 -1.18738 0.131221 15.2934 -3.0197 0.405418 19.6748 -3.85226 0.666757 13.1055 -2.59652 0.298707 3.64451 4.18284 -2.83799 2.46022 -5.03803 0.068528 -60.6835 -48.5159 -71.1766 -3.27406 64.3183 2.05853 -2.88149e-06 1.79292e-05 0 5.33608e-07 1.28066e-06 0 33.9622 -11.6642 19.1207 -8.12945 58.8111 6.51465 1.21124 -0.226583 -1.41441 -6.15501 -41.8204 -15.6925 
50.7924 55.053 2.52201 -0.590334 11.3615 -32.6864 5.26209 0.00832034 0 1.67021 1.82553 -9.92374 -4.26887e-07 1.06722e-07 0 -4.26887e-07 1.06722e-07 0 -34.0879 4.33995 17.851 -14.4316 2.86228 -22.325 -2.56132e-06 1.19528e-05 0 4.10661 20.7048 -22.2077 -0 0 0 -14.5838 -0.184634 1.4429 -23.0392 6.69633 1.36599 -29.7079 8.45641 2.24688 -19.7239 5.7813 1.0056 -26.9058 5.17146 1.23731 -34.6521 6.48772 2.02557 -23.0455 4.47669 0.913424 -30.6568 -2.91896 -0.801125 -39.437 -3.63471 -1.30264 -26.2713 -2.53438 -0.592151 -33.6818 -6.32915 -1.91758 -43.4131 -7.82631 -3.11994 -28.839 -5.51027 -1.41773 -4.26887e-07 1.06722e-07 0 -21.7979 -9.85518 46.5683 -3.55715 -0.154335 4.96714 -3.18055e-15 1.70755e-06 0 -4.10661 20.7048 22.2077 -0 0 0 6.62904 0.038307 0.662045 10.433 3.10959 -0.279765 13.4225 3.98358 -0.468136 8.94028 2.66928 -0.205584 12.202 2.42055 -0.262442 15.6943 3.09674 -0.427958 10.4572 2.07894 -0.189746 13.924 -1.37847 0.163129 17.9045 -1.7609 0.279765 11.9342 -1.18464 0.131221 15.2576 -3.0128 0.405418 19.6285 -3.84359 0.665582 13.0747 -2.59054 0.296075 4.25684 4.10653 -3.31341 0.302487 -5.68914 0 -61.4815 -48.9297 -71.525 -2.72522 60.7728 1.59786 3.57518e-06 -9.8184e-06 0.0395647 -6.4033e-07 -4.26887e-07 0 34.9061 -11.684 19.6242 -8.06941 58.6545 6.52738 1.23027 -0.225683 -1.46123 -5.98878 -40.6735 -15.7248 
49.698 54.5115 1.76201 -0.336685 11.1142 -32.3746 5.0352 0.00716972 0 1.61907 1.83957 -9.35226 2.24378e-14 7.47052e-07 0 2.24378e-14 7.47052e-07 0 -32.5327 4.31259 16.2638 -14.5974 2.62224 -20.2631 6.83019e-06 -1.45142e-05 0.0559529 4.10661 20.7048 -22.2077 -0 0 0 -14.4151 -0.180408 1.42653 -22.7702 6.62299 1.33528 -29.3592 8.36735 2.19578 -19.4942 5.71702 0.981973 -26.5928 5.11601 1.20981 -34.2478 6.42188 1.98063 -22.7777 4.42766 0.891745 -30.3015 -2.88841 -0.781341 -38.9794 -3.5994 -1.2747 -25.9669 -2.5071 -0.577428 -33.2889 -6.26441 -1.87465 -42.9048 -7.7535 -3.05094 -28.5032 -5.45189 -1.38534 2.24378e-14 7.47052e-07 0 -22.0361 -9.54387 44.8795 -3.24751 -0.151912 5.35533 1.4941e-06 -4.69575e-06 0 -4.10661 20.7048 22.2077 -0 0 0 6.61095 0.0380985 0.658488 10.4045 3.1012 -0.282548 13.3857 3.97291 -0.466461 8.91585 2.66206 -0.201741 12.1687 2.41405 -0.256409 15.6514 3.08851 -0.424284 10.4287 2.07333 -0.189746 13.886 -1.37478 0.163129 17.8556 -1.75625 0.274112 11.9017 -1.18146 0.125115 15.2159 -3.00477 0.399584 19.5748 -3.83352 0.660861 13.039 -2.5836 0.296075 5.16506 4.34769 -4.02512 -2.07425 -6.78384 0.185575 -62.1397 -49.1001 -71.6471 -2.20508 55.9781 1.17168 -2.77476e-06 8.53774e-06 0.0395647 2.13443e-07 -8.53774e-07 0 36.086 -11.6655 20.0339 -7.95948 58.4562 6.63129 1.32753 -0.22069 -1.56769 -5.78672 -39.2384 -15.7799 
48.3599 53.8065 0.895052 -0.123389 10.7997 -31.9 4.69798 0.00664009 0.0395647 1.56092 1.85386 -8.68353 8.53774e-07 1.06722e-07 0.0395647 8.53774e-07 1.06722e-07 0.0395647 -30.7209 4.0583 14.5925 -14.402 2.31756 -18.191 -0 -8.53774e-07 0 4.10661 20.7048 -22.2077 -0 0 0 -14.2072 -0.175269 1.40664 -22.4389 6.53246 1.29662 -28.9299 8.25723 2.13396 -19.2112 5.63771 0.954488 -26.2073 5.04749 1.17568 -33.7499 6.34034 1.92492 -22.4479 4.36713 0.865917 -29.8637 -2.85063 -0.761043 -38.4158 -3.55558 -1.23921 -25.5919 -2.4734 -0.560927 -32.8052 -6.18426 -1.82214 -42.2788 -7.663 -2.96691 -28.0898 -5.37973 -1.34521 8.53774e-07 1.06722e-07 0.0395647 -22.1278 -9.12644 42.988 -2.9575 -0.14743 5.70587 3.41509e-06 -2.13443e-07 0 -4.10661 20.7048 22.2077 -0 0 0 6.58978 0.0378551 0.658488 10.3711 3.09137 -0.279765 13.3427 3.96042 -0.4614 8.88725 2.6536 -0.205584 12.1296 2.40643 -0.253338 15.6012 3.07886 -0.420579 10.3952 2.06676 -0.193827 13.8415 -1.37046 0.163129 17.7984 -1.75081 0.274112 11.8635 -1.17773 0.125115 15.167 -2.99537 0.39762 19.5119 -3.82172 0.656107 12.9972 -2.57546 0.296075 6.34269 4.8908 -4.95514 -4.59789 -8.26272 0.068528 -62.6877 -49.0049 -71.5464 -1.68446 49.9799 0.784341 2.56132e-06 -2.56132e-06 0.0559529 4.26887e-07 -3.41509e-06 0 37.487 -11.6208 20.3118 -7.80068 58.1912 6.80509 1.49584 -0.215797 -1.7323 -5.53389 -37.5292 -15.8105 
